<?xml version="1.0" encoding="UTF-8" standalone="no"?>
<!-- Created with Inkscape (http://www.inkscape.org/) -->

<svg
   xmlns:osb="http://www.openswatchbook.org/uri/2009/osb"
   xmlns:dc="http://purl.org/dc/elements/1.1/"
   xmlns:cc="http://creativecommons.org/ns#"
   xmlns:rdf="http://www.w3.org/1999/02/22-rdf-syntax-ns#"
   xmlns:svg="http://www.w3.org/2000/svg"
   xmlns="http://www.w3.org/2000/svg"
   xmlns:xlink="http://www.w3.org/1999/xlink"
   xmlns:sodipodi="http://sodipodi.sourceforge.net/DTD/sodipodi-0.dtd"
   xmlns:inkscape="http://www.inkscape.org/namespaces/inkscape"
   width="32px"
   height="32px"
   viewBox="0 0 32 32"
   version="1.1"
   id="SVGRoot"
   inkscape:export-filename="/mnt/naboo/fox/public_html/books/img/ic_launcher.png"
   inkscape:export-xdpi="1536"
   inkscape:export-ydpi="1536"
   inkscape:version="0.92.3 (2405546, 2018-03-11)"
   sodipodi:docname="s_launcher.svg">
  <sodipodi:namedview
     id="base"
     pagecolor="#ffffff"
     bordercolor="#666666"
     borderopacity="1.0"
     inkscape:pageopacity="0.0"
     inkscape:pageshadow="2"
     inkscape:zoom="10.949107"
     inkscape:cx="16"
     inkscape:cy="16"
     inkscape:document-units="px"
     inkscape:current-layer="layer1"
     showgrid="false"
     inkscape:window-width="1920"
     inkscape:window-height="1170"
     inkscape:window-x="0"
     inkscape:window-y="0"
     inkscape:window-maximized="0"
     inkscape:grid-bbox="true"
     inkscape:snap-others="false"
     inkscape:object-nodes="false"
     inkscape:snap-nodes="false" />
  <defs
     id="defs815">
    <pattern
       inkscape:collect="always"
       xlink:href="#pattern6304"
       id="pattern6315"
       patternTransform="matrix(0.49319859,0,0,0.91161165,51.415491,-93.787572)" />
    <linearGradient
       id="linearGradient1579"
       osb:paint="solid">
      <stop
         style="stop-color:#00e0ca;stop-opacity:1;"
         offset="0"
         id="stop1577" />
    </linearGradient>
    <clipPath
       clipPathUnits="userSpaceOnUse"
       id="clipPath3180">
      <circle
         style="fill:#2a0a00;fill-opacity:1;stroke:none;stroke-width:6.02456713;stroke-miterlimit:4;stroke-dasharray:none;stroke-opacity:0.32142861"
         id="circle3182"
         cx="16"
         cy="16"
         r="15.25" />
    </clipPath>
    <radialGradient
       gradientUnits="userSpaceOnUse"
       r="514"
       cy="281"
       cx="396"
       id="a">
      <stop
         id="stop6256"
         stop-color="#D18"
         offset="0" />
      <stop
         id="stop6258"
         stop-color="#330000"
         offset="1" />
    </radialGradient>
    <linearGradient
       y2="333"
       x2="400"
       y1="148"
       x1="400"
       gradientUnits="userSpaceOnUse"
       id="b">
      <stop
         id="stop6261"
         stop-opacity="0"
         stop-color="#FA3"
         offset="0" />
      <stop
         id="stop6263"
         stop-opacity="0.5"
         stop-color="#FA3"
         offset="1" />
    </linearGradient>
    <linearGradient
       inkscape:collect="always"
       xlink:href="#b"
       id="linearGradient6298"
       gradientUnits="userSpaceOnUse"
       x1="400"
       y1="148"
       x2="400"
       y2="333" />
    <linearGradient
       inkscape:collect="always"
       xlink:href="#b"
       id="linearGradient6300"
       gradientUnits="userSpaceOnUse"
       x1="400"
       y1="148"
       x2="400"
       y2="333" />
    <linearGradient
       inkscape:collect="always"
       xlink:href="#b"
       id="linearGradient6302"
       gradientUnits="userSpaceOnUse"
       x1="400"
       y1="148"
       x2="400"
       y2="333" />
    <pattern
       patternUnits="userSpaceOnUse"
       width="198.8209"
       height="154"
       patternTransform="translate(51.415491,-93.787572)"
       id="pattern6304">
      <g
         transform="matrix(0.22985075,0,0,0.22985075,7.4701494,62.059702)"
         id="g6296">
        <rect
           style="fill:#330000"
           y="0"
           x="0"
           width="800"
           height="400"
           id="rect6254" />
        <rect
           style="fill:url(#a)"
           y="0"
           x="0"
           width="800"
           height="400"
           id="rect6268" />
        <g
           style="fill-opacity:0.4"
           id="g6276">
          <circle
             style="fill:url(#linearGradient6298)"
             cx="267.5"
             cy="61"
             r="300"
             id="circle6270" />
          <circle
             style="fill:url(#linearGradient6300)"
             cx="532.5"
             cy="61"
             r="300"
             id="circle6272" />
          <circle
             style="fill:url(#linearGradient6302)"
             cx="400"
             cy="30"
             r="300"
             id="circle6274" />
        </g>
      </g>
    </pattern>
  </defs>
  <metadata
     id="metadata818">
    <rdf:RDF>
      <cc:Work
         rdf:about="">
        <dc:format>image/svg+xml</dc:format>
        <dc:type
           rdf:resource="http://purl.org/dc/dcmitype/StillImage" />
        <dc:title />
      </cc:Work>
    </rdf:RDF>
  </metadata>
  <g
     id="layer1"
     inkscape:groupmode="layer"
     inkscape:label="Layer 1">
    <circle
       style="fill:url(#pattern6315);fill-opacity:1;stroke:none;stroke-width:6.02456713;stroke-miterlimit:4;stroke-dasharray:none;stroke-opacity:0.32142861"
       id="path1416-3-9"
       cx="16"
       cy="16"
       r="15.25" />
    <path
       style="fill:#000000;fill-opacity:0.25098039;stroke:none;stroke-width:0.91927344px;stroke-linecap:butt;stroke-linejoin:miter;stroke-opacity:1"
       d="M 5.808046,22.317561 14.014265,33.030227 30.281688,30.941236 32.215914,20.146919 25.855701,8.402966 24.273701,7.9967868 22.178607,4.2662355 17.753638,11.742961 15.743693,8.402966 8.4751838,16.189777 Z"
       id="path3112"
       inkscape:connector-curvature="0"
       sodipodi:nodetypes="ccccccccccc"
       clip-path="url(#clipPath3180)" />
    <path
       style="fill:#ffffff;fill-opacity:1;stroke-width:0.03779528;stroke:none;stroke-opacity:0.70918369;stroke-miterlimit:4;stroke-dasharray:none"
       d="M 22.177734 4.265625 L 17.582031 8.4023438 L 17.582031 18.515625 L 22.177734 14.378906 L 22.177734 4.265625 z M 10.6875 7.0234375 C 8.8949169 7.0234375 6.9638059 7.391143 5.6308594 8.4023438 L 5.6308594 21.878906 C 5.6308594 22.108724 5.8619786 22.339844 6.0917969 22.339844 C 6.1837239 22.339844 6.2283851 22.275391 6.3203125 22.275391 C 7.5613317 21.677863 9.3545536 21.273437 10.6875 21.273438 C 12.480083 21.273438 14.411195 21.641143 15.744141 22.652344 C 16.98516 21.870961 19.236063 21.273438 20.798828 21.273438 C 22.315629 21.273438 23.879033 21.558592 25.166016 22.248047 C 25.257946 22.294007 25.304557 22.275391 25.396484 22.275391 C 25.626303 22.275391 25.855469 22.044271 25.855469 21.814453 L 25.855469 8.4023438 C 25.303905 7.9886708 24.707033 7.7141933 24.017578 7.484375 L 24.017578 9.3222656 L 24.017578 14.378906 L 24.017578 19.894531 C 23.006377 19.572786 21.901956 19.433594 20.798828 19.433594 C 19.236063 19.433594 16.98516 20.031117 15.744141 20.8125 L 15.744141 14.378906 L 15.744141 10.242188 L 15.744141 8.4023438 C 14.411195 7.391143 12.480083 7.0234375 10.6875 7.0234375 z M 7.9140625 10.802734 L 12.757812 10.802734 L 12.804688 12.484375 L 12.304688 12.484375 L 12.257812 12.070312 C 12.23219 11.858926 12.155457 11.677173 12.027344 11.523438 C 11.905637 11.363296 11.700363 11.283203 11.412109 11.283203 L 9.796875 11.283203 L 9.796875 13.837891 L 12.113281 13.837891 L 12.113281 14.308594 L 9.796875 14.308594 L 9.796875 17.181641 L 11.652344 17.181641 C 11.953409 17.181641 12.170169 17.104907 12.304688 16.951172 C 12.445612 16.791031 12.532425 16.605918 12.564453 16.394531 L 12.632812 15.980469 L 13.132812 15.980469 L 13.064453 17.662109 L 7.9140625 17.662109 L 7.9140625 17.259766 L 8.0390625 17.259766 C 8.2504488 17.259766 8.4341552 17.222806 8.5878906 17.152344 C 8.7480317 17.075476 8.828125 16.897083 8.828125 16.615234 L 8.828125 11.896484 C 8.828125 11.595419 8.7513917 11.406946 8.5976562 11.330078 C 8.4439208 11.246805 8.2568544 11.205078 8.0390625 11.205078 L 7.9140625 11.205078 L 7.9140625 10.802734 z "
       id="path1403" />
  </g>
</svg>
